<svg xmlns="http://www.w3.org/2000/svg" viewBox="0 0 64 64">
  <!-- background -->
  <rect width="64" height="64" rx="16" fill="#09090B"/>

  <!-- subtle glow -->
  <circle cx="48" cy="16" r="20" fill="#F59E0B" opacity="0.12"/>

  <!-- burger -->
  <g fill="none" stroke="#FBBF24" stroke-width="4.5" stroke-linecap="round" stroke-linejoin="round">
    <!-- top bun -->
    <path d="M16 28c0-7.2 7.2-13 16-13s16 5.8 16 13"/>
    <!-- sesame -->
    <g stroke-width="2.2" opacity="0.75">
      <path d="M24 23c1.2.7 2.8 1 4.4 1"/>
      <path d="M31.8 24c1.6 0 3.2-.3 4.6-1"/>
      <path d="M40 23c1.2.7 2.6 1 4.2 1"/>
    </g>
    <!-- layers -->
    <path d="M14 32h36"/>
    <path d="M18 39h28"/>
    <!-- bottom bun -->
    <path d="M16 42c0 5.4 7.2 9.8 16 9.8S48 47.4 48 42"/>
  </g>
</svg>